<svg width="1210" height="278" viewBox="0 0 1210 278" fill="none" xmlns="http://www.w3.org/2000/svg">
<path d="M216.699 136.357C216.763 181.273 204.911 225.403 182.352 264.243C179.889 268.438 176.372 271.915 172.148 274.328C167.925 276.742 163.144 278.008 158.28 278H62.7184C97.23 242.429 116.495 194.793 116.412 145.232C116.412 139.419 116.153 133.672 115.636 127.991C113.774 107.061 108.451 86.5856 99.8819 67.3993C99.0378 65.6268 98.7269 63.6472 98.987 61.7012C99.247 59.7552 100.067 57.9267 101.347 56.438C101.604 56.1551 101.878 55.8881 102.168 55.6384L161.053 4.20907C162.562 2.88921 164.343 1.9175 166.269 1.36289C168.195 0.808266 170.22 0.684318 172.2 0.99983C174.18 1.31534 176.066 2.06259 177.724 3.18857C179.383 4.31454 180.773 5.79167 181.797 7.51518C204.72 46.5783 216.771 91.0647 216.699 136.357Z" fill="url(#paint0_linear_5773_105273)"/>
<path d="M116.412 145.232C116.495 194.793 97.2303 242.429 62.7187 278H61.6548C59.0252 233.057 38.7171 190.981 5.1662 160.962C3.70318 159.678 2.53059 158.098 1.72661 156.325C0.922628 154.552 0.505718 152.629 0.50367 150.683C0.501622 148.736 0.914483 146.812 1.71473 145.038C2.51498 143.263 3.68424 141.68 5.14455 140.393L60.1904 92.3142C62.4799 90.3172 65.3693 89.1394 68.4025 88.9669C71.4357 88.7943 74.44 89.6366 76.9413 91.361C91.6709 101.479 104.727 113.838 115.637 127.992C116.146 133.67 116.404 139.417 116.412 145.232Z" fill="url(#paint1_linear_5773_105273)"/>
<path d="M116.414 145.232C116.503 193.015 98.5923 239.078 66.2483 274.25C66.4471 273.959 66.6252 273.655 66.7813 273.34C91.839 240.143 105.364 199.669 105.299 158.077C105.315 141.681 103.227 125.352 99.085 109.488C105.053 115.244 110.593 121.428 115.66 127.992C116.148 133.67 116.414 139.419 116.414 145.232Z" fill="#155D27"/>
<path d="M66.7814 273.339C83.9743 244.004 93.0132 210.606 92.9622 176.604C93.0055 146.221 85.7948 116.266 71.9298 89.231C73.7272 89.5968 75.4324 90.3211 76.9435 91.3608C84.8288 96.759 92.2365 102.823 99.0853 109.488C103.227 125.351 105.315 141.681 105.299 158.077C105.365 199.669 91.8391 240.143 66.7814 273.339Z" fill="url(#paint2_linear_5773_105273)"/>
<path d="M451.275 83.9828L387.546 268.875H321.719L257.728 83.9828H312.803L354.764 217.472L396.463 83.9828H451.275Z" fill="white"/>
<path d="M477.367 100.636C474.703 98.3044 472.583 95.417 471.156 92.1772C469.729 88.9375 469.029 85.4243 469.106 81.8849C469.019 78.2865 469.712 74.712 471.138 71.4071C472.564 68.1022 474.689 65.1454 477.367 62.7401C482.875 57.6711 490.174 55.1359 499.266 55.1345C508.182 55.1345 515.395 57.6697 520.902 62.7401C523.58 65.1453 525.705 68.102 527.131 71.407C528.557 74.7119 529.251 78.2865 529.163 81.8849C529.24 85.4243 528.541 88.9376 527.113 92.1773C525.686 95.4171 523.566 98.3045 520.902 100.636C515.395 105.619 508.183 108.111 499.266 108.111C490.173 108.111 482.873 105.619 477.367 100.636ZM524.705 121.748V268.875H473.302V121.748H524.705Z" fill="white"/>
<path d="M587.254 264.024C576.85 259.565 568.632 253.446 562.602 245.665C556.651 238.102 553.13 228.912 552.505 219.308H602.334C602.595 221.501 603.313 223.615 604.442 225.512C605.572 227.41 607.087 229.049 608.89 230.323C612.562 232.946 617.108 234.257 622.528 234.257C626.724 234.257 630.046 233.383 632.494 231.635C633.631 230.9 634.564 229.889 635.206 228.697C635.848 227.505 636.178 226.17 636.165 224.816C636.165 221.144 634.154 218.434 630.133 216.686C626.109 214.94 619.465 213.017 610.202 210.916C601.287 209.25 592.518 206.882 583.976 203.835C576.91 201.164 570.638 196.743 565.749 190.985C560.59 185.043 558.011 177 558.012 166.857C557.924 158.412 560.392 150.138 565.093 143.123C569.814 136.041 576.763 130.403 585.943 126.207C595.122 122.011 606.18 119.913 619.118 119.912C638.349 119.912 653.473 124.633 664.489 134.074C675.504 143.516 681.886 155.929 683.634 171.315H637.214C636.595 167.044 634.396 163.16 631.051 160.431C627.814 157.899 623.486 156.631 618.069 156.629C613.873 156.629 610.682 157.416 608.497 158.989C607.443 159.719 606.591 160.702 606.018 161.848C605.445 162.994 605.17 164.265 605.218 165.546C605.218 169.045 607.229 171.711 611.25 173.545C615.271 175.38 621.74 177.26 630.658 179.183C639.722 180.995 648.624 183.538 657.277 186.788C664.5 189.691 670.895 194.33 675.897 200.294C681.228 206.503 683.894 214.939 683.896 225.602C683.982 233.903 681.358 242.006 676.422 248.681C671.439 255.499 664.358 260.876 655.179 264.81C646 268.743 635.203 270.71 622.79 270.71C609.501 270.711 597.656 268.482 587.254 264.024Z" fill="white"/>
<path d="M719.167 100.636C716.504 98.3045 714.383 95.417 712.956 92.1772C711.529 88.9375 710.829 85.4243 710.906 81.8849C710.819 78.2865 711.512 74.7119 712.938 71.407C714.364 68.1021 716.489 65.1454 719.167 62.7401C724.675 57.6711 731.974 55.1359 741.066 55.1345C749.982 55.1345 757.195 57.6697 762.702 62.7401C765.38 65.1453 767.505 68.102 768.931 71.407C770.357 74.7119 771.051 78.2865 770.963 81.8849C771.04 85.4243 770.341 88.9376 768.913 92.1773C767.486 95.4171 765.366 98.3045 762.702 100.636C757.195 105.619 749.983 108.111 741.066 108.111C731.973 108.111 724.673 105.619 719.167 100.636ZM766.505 121.748V268.875H715.103V121.748H766.505Z" fill="white"/>
<path d="M830.889 261.532C819.438 255.585 809.928 246.484 803.483 235.306C796.836 223.943 793.514 210.568 793.517 195.18C793.517 179.969 796.883 166.682 803.614 155.317C810.136 144.153 819.682 135.061 831.152 129.091C842.777 122.973 855.933 119.914 870.621 119.912C885.308 119.912 898.465 122.972 910.091 129.091C921.559 135.063 931.105 144.154 937.628 155.317C944.357 166.684 947.723 179.972 947.725 195.18C947.725 210.391 944.36 223.723 937.628 235.175C931.111 246.422 921.51 255.568 909.96 261.532C898.244 267.654 885.044 270.714 870.359 270.711C855.672 270.711 842.516 267.651 830.889 261.532ZM888.324 218.128C893.13 212.797 895.534 205.148 895.536 195.18C895.536 185.215 893.132 177.609 888.324 172.364C886.119 169.849 883.394 167.843 880.337 166.484C877.281 165.126 873.966 164.448 870.621 164.496C867.295 164.439 863.996 165.114 860.96 166.474C857.923 167.833 855.223 169.844 853.05 172.364C848.33 177.609 845.969 185.215 845.969 195.18C845.969 205.322 848.242 213.015 852.788 218.259C854.937 220.807 857.633 222.837 860.675 224.199C863.718 225.561 867.028 226.22 870.359 226.127C873.757 226.191 877.127 225.508 880.231 224.126C883.335 222.743 886.098 220.696 888.324 218.128V218.128Z" fill="white"/>
<path d="M1111.37 137.352C1121.34 148.63 1126.32 163.884 1126.32 183.117V268.875H1074.92V189.935C1074.92 181.543 1072.73 174.943 1068.36 170.135C1063.99 165.328 1058.13 162.924 1050.79 162.923C1043.09 162.923 1037.06 165.327 1032.69 170.135C1028.32 174.946 1026.14 181.546 1026.14 189.935V268.875H974.735V121.748H1026.14V142.729C1030.85 135.936 1037.15 130.399 1044.5 126.6C1052.19 122.494 1061.02 120.44 1070.98 120.437C1087.94 120.437 1101.4 126.075 1111.37 137.352Z" fill="white"/>
<path d="M1180 268.875C1196.35 268.875 1209.6 255.623 1209.6 239.275C1209.6 222.927 1196.35 209.674 1180 209.674C1163.66 209.674 1150.4 222.927 1150.4 239.275C1150.4 255.623 1163.66 268.875 1180 268.875Z" fill="url(#paint3_linear_5773_105273)"/>
<defs>
<linearGradient id="paint0_linear_5773_105273" x1="270.406" y1="14.639" x2="70.571" y2="241.724" gradientUnits="userSpaceOnUse">
<stop stop-color="#BFD200"/>
<stop offset="1" stop-color="#007F5F"/>
</linearGradient>
<linearGradient id="paint1_linear_5773_105273" x1="111.928" y1="201.713" x2="29.4208" y2="168.407" gradientUnits="userSpaceOnUse">
<stop stop-color="#155D27"/>
<stop offset="1" stop-color="#25A244"/>
</linearGradient>
<linearGradient id="paint2_linear_5773_105273" x1="183.646" y1="231.086" x2="-117.62" y2="99.3763" gradientUnits="userSpaceOnUse">
<stop offset="0.1757" stop-color="#155D27"/>
<stop offset="1" stop-color="#25A244"/>
</linearGradient>
<linearGradient id="paint3_linear_5773_105273" x1="1282.01" y1="126.803" x2="971.873" y2="468.753" gradientUnits="userSpaceOnUse">
<stop stop-color="#BFD200"/>
<stop offset="1" stop-color="#007F5F"/>
</linearGradient>
</defs>
</svg>
