<svg width="1218" height="280" viewBox="0 0 1218 280" fill="none" xmlns="http://www.w3.org/2000/svg">
<path d="M217.758 136.505C217.822 181.746 205.885 226.195 183.163 265.316C180.682 269.541 177.139 273.043 172.886 275.474C168.632 277.904 163.816 279.18 158.917 279.172H62.6647C97.4256 243.344 116.83 195.364 116.746 145.445C116.746 139.589 116.486 133.801 115.965 128.079C114.09 106.998 108.727 86.3743 100.097 67.0494C99.2466 65.264 98.9334 63.2701 99.1953 61.3101C99.4572 59.35 100.283 57.5083 101.572 56.0088C101.831 55.7239 102.107 55.455 102.399 55.2035L161.71 3.4025C163.23 2.0731 165.023 1.09437 166.964 0.535746C168.904 -0.0228812 170.943 -0.147725 172.937 0.170067C174.931 0.487859 176.831 1.2405 178.502 2.37462C180.172 3.50873 181.573 4.99654 182.604 6.7325C205.693 46.0779 217.831 90.8857 217.758 136.505Z" fill="url(#paint0_linear_5773_105255)"/>
<path d="M116.746 145.445C116.83 195.364 97.4257 243.344 62.6647 279.172H61.5931C58.9445 233.904 38.4896 191.524 4.69629 161.289C3.2227 159.996 2.04164 158.403 1.23185 156.618C0.422055 154.833 0.00213153 152.895 6.86725e-05 150.935C-0.00199419 148.974 0.413851 147.036 1.21988 145.249C2.02592 143.462 3.20362 141.867 4.67449 140.571L60.1181 92.1446C62.4242 90.1332 65.3344 88.9469 68.3896 88.7731C71.4447 88.5993 74.4707 89.4477 76.9901 91.1846C91.8261 101.376 104.977 113.824 115.965 128.08C116.478 133.8 116.738 139.588 116.746 145.445Z" fill="url(#paint1_linear_5773_105255)"/>
<path d="M116.748 145.445C116.838 193.573 98.7974 239.969 66.2197 275.395C66.42 275.102 66.5994 274.796 66.7566 274.478C91.9954 241.042 105.619 200.275 105.553 158.382C105.569 141.868 103.465 125.42 99.2937 109.442C105.305 115.24 110.885 121.469 115.989 128.08C116.48 133.799 116.748 139.589 116.748 145.445Z" fill="#155D27"/>
<path d="M66.7566 274.478C84.0738 244.93 93.178 211.291 93.1266 177.043C93.1702 146.44 85.9074 116.269 71.9422 89.0387C73.7526 89.4071 75.4701 90.1367 76.9922 91.1839C84.9344 96.621 92.3957 102.729 99.294 109.442C103.465 125.42 105.569 141.868 105.553 158.382C105.619 200.274 91.9954 241.041 66.7566 274.478Z" fill="url(#paint2_linear_5773_105255)"/>
<path d="M454.029 83.7531L389.839 269.981H323.537L259.083 83.7531H314.556L356.82 218.207L398.82 83.7531H454.029Z" fill="#000F0B"/>
<path d="M480.31 100.527C477.627 98.1779 475.492 95.2696 474.054 92.0064C472.617 88.7433 471.912 85.2047 471.989 81.6397C471.902 78.0154 472.6 74.4149 474.036 71.0862C475.473 67.7574 477.613 64.7792 480.31 62.3565C485.858 57.2509 493.21 54.6974 502.367 54.696C511.348 54.696 518.612 57.2495 524.16 62.3565C526.857 64.7792 528.997 67.7573 530.434 71.0861C531.87 74.4149 532.568 78.0153 532.481 81.6397C532.558 85.2047 531.853 88.7434 530.416 92.0065C528.978 95.2697 526.843 98.178 524.16 100.527C518.612 105.546 511.348 108.055 502.367 108.055C493.208 108.055 485.856 105.546 480.31 100.527ZM527.99 121.791V269.981H476.216V121.791H527.99Z" fill="#000F0B"/>
<path d="M590.99 265.095C580.511 260.604 572.234 254.44 566.16 246.604C560.166 238.985 556.62 229.73 555.99 220.056H606.179C606.442 222.265 607.165 224.394 608.303 226.305C609.44 228.216 610.967 229.867 612.783 231.151C616.481 233.792 621.06 235.113 626.519 235.113C630.746 235.113 634.092 234.233 636.557 232.472C637.702 231.731 638.642 230.714 639.289 229.513C639.935 228.312 640.268 226.967 640.255 225.604C640.255 221.905 638.23 219.176 634.179 217.415C630.126 215.657 623.434 213.72 614.104 211.604C605.125 209.925 596.292 207.54 587.689 204.471C580.572 201.781 574.255 197.327 569.33 191.528C564.133 185.543 561.536 177.443 561.537 167.226C561.448 158.72 563.934 150.386 568.669 143.32C573.424 136.188 580.424 130.508 589.669 126.282C598.915 122.056 610.054 119.942 623.085 119.942C642.455 119.942 657.688 124.697 668.784 134.206C679.878 143.716 686.306 156.219 688.067 171.716H641.312C640.688 167.414 638.473 163.502 635.104 160.754C631.843 158.203 627.485 156.927 622.028 156.924C617.802 156.924 614.588 157.716 612.387 159.301C611.326 160.036 610.467 161.026 609.89 162.18C609.313 163.334 609.036 164.616 609.085 165.905C609.085 169.43 611.11 172.115 615.16 173.962C619.209 175.811 625.725 177.704 634.708 179.641C643.837 181.466 652.804 184.027 661.519 187.301C668.794 190.225 675.236 194.897 680.274 200.905C685.644 207.158 688.329 215.655 688.331 226.395C688.418 234.757 685.774 242.918 680.802 249.641C675.783 256.509 668.651 261.924 659.406 265.886C650.16 269.849 639.286 271.83 626.783 271.83C613.398 271.83 601.467 269.585 590.99 265.095Z" fill="#000F0B"/>
<path d="M723.857 100.527C721.174 98.1779 719.039 95.2696 717.601 92.0064C716.164 88.7433 715.459 85.2047 715.537 81.6397C715.449 78.0154 716.147 74.4149 717.583 71.0862C719.02 67.7574 721.16 64.7792 723.857 62.3565C729.405 57.2509 736.757 54.6974 745.914 54.696C754.895 54.696 762.159 57.2495 767.707 62.3565C770.404 64.7792 772.544 67.7573 773.981 71.0861C775.417 74.4149 776.116 78.0153 776.028 81.6397C776.105 85.2047 775.4 88.7434 773.963 92.0065C772.525 95.2697 770.39 98.178 767.707 100.527C762.16 105.546 754.895 108.055 745.914 108.055C736.755 108.055 729.403 105.546 723.857 100.527ZM771.537 121.791V269.981H719.763V121.791H771.537Z" fill="#000F0B"/>
<path d="M836.386 262.585C824.852 256.595 815.274 247.428 808.782 236.169C802.087 224.724 798.741 211.252 798.744 195.754C798.744 180.433 802.134 167.049 808.914 155.602C815.483 144.357 825.098 135.199 836.65 129.187C848.36 123.025 861.611 119.943 876.405 119.942C891.198 119.942 904.45 123.024 916.161 129.187C927.711 135.202 937.326 144.359 943.897 155.602C950.674 167.052 954.064 180.436 954.067 195.754C954.067 211.075 950.677 224.502 943.897 236.037C937.332 247.366 927.662 256.578 916.028 262.585C904.228 268.751 890.932 271.833 876.141 271.83C861.348 271.83 848.097 268.748 836.386 262.585ZM894.236 218.867C899.077 213.497 901.498 205.793 901.5 195.754C901.5 185.716 899.079 178.056 894.236 172.772C892.015 170.239 889.27 168.218 886.192 166.85C883.113 165.482 879.774 164.799 876.406 164.848C873.055 164.79 869.733 165.47 866.674 166.84C863.616 168.209 860.896 170.235 858.707 172.772C853.953 178.056 851.575 185.716 851.575 195.754C851.575 205.969 853.864 213.718 858.443 218.999C860.608 221.565 863.324 223.61 866.388 224.982C869.452 226.354 872.786 227.018 876.142 226.924C879.564 226.988 882.958 226.3 886.085 224.908C889.211 223.516 891.994 221.454 894.236 218.867V218.867Z" fill="#000F0B"/>
<path d="M1118.89 137.508C1128.93 148.867 1133.95 164.232 1133.95 183.603V269.981H1082.18V190.471C1082.18 182.018 1079.98 175.37 1075.57 170.528C1071.17 165.686 1065.27 163.265 1057.88 163.263C1050.12 163.263 1044.05 165.685 1039.65 170.528C1035.24 175.373 1033.04 182.021 1033.04 190.471V269.981H981.271V121.791H1033.04V142.923C1037.79 136.082 1044.14 130.505 1051.54 126.678C1059.28 122.542 1068.18 120.473 1078.22 120.47C1095.29 120.47 1108.85 126.15 1118.89 137.508Z" fill="#000F0B"/>
<path d="M1188.02 269.981C1204.49 269.981 1217.84 256.633 1217.84 240.167C1217.84 223.701 1204.49 210.353 1188.02 210.353C1171.56 210.353 1158.21 223.701 1158.21 240.167C1158.21 256.633 1171.56 269.981 1188.02 269.981Z" fill="url(#paint3_linear_5773_105255)"/>
<defs>
<linearGradient id="paint0_linear_5773_105255" x1="271.853" y1="13.9078" x2="70.5741" y2="242.634" gradientUnits="userSpaceOnUse">
<stop stop-color="#BFD200"/>
<stop offset="1" stop-color="#007F5F"/>
</linearGradient>
<linearGradient id="paint1_linear_5773_105255" x1="112.23" y1="202.334" x2="29.1262" y2="168.788" gradientUnits="userSpaceOnUse">
<stop stop-color="#155D27"/>
<stop offset="1" stop-color="#25A244"/>
</linearGradient>
<linearGradient id="paint2_linear_5773_105255" x1="184.466" y1="231.919" x2="-118.978" y2="99.2573" gradientUnits="userSpaceOnUse">
<stop offset="0.1757" stop-color="#155D27"/>
<stop offset="1" stop-color="#25A244"/>
</linearGradient>
<linearGradient id="paint3_linear_5773_105255" x1="1290.77" y1="126.882" x2="978.389" y2="471.303" gradientUnits="userSpaceOnUse">
<stop stop-color="#BFD200"/>
<stop offset="1" stop-color="#007F5F"/>
</linearGradient>
</defs>
</svg>
